<svg width="68" height="68" viewBox="0 0 68 68" fill="none" xmlns="http://www.w3.org/2000/svg">
<rect x="-0.5" y="0.5" width="67" height="67" rx="33.5" transform="matrix(-1 0 0 1 67 0)" fill="#FAF4D7"/>
<path fill-rule="evenodd" clip-rule="evenodd" d="M27.7517 19.0487C29.6687 18.2915 31.789 17.875 34 17.875C42.8184 17.875 50.125 24.5239 50.125 32.89C50.125 41.2561 42.8184 47.905 34 47.905C32.5185 47.905 31.0841 47.7239 29.7099 47.3714L25.0715 49.9805C24.7232 50.1765 24.297 50.1729 23.952 49.9711C23.607 49.7693 23.395 49.3997 23.395 49V44.206C20.0378 41.4664 17.875 37.4308 17.875 32.89C17.875 29.3795 19.1823 26.1409 21.3366 23.5978C21.7382 23.1237 22.4481 23.065 22.9222 23.4666C23.3963 23.8682 23.455 24.5781 23.0534 25.0522C21.2177 27.2191 20.125 29.9505 20.125 32.89C20.125 36.8516 22.0899 40.4035 25.2001 42.7639C25.4804 42.9766 25.645 43.3081 25.645 43.66V47.0764L29.0085 45.1845C29.2708 45.0369 29.5813 45.0006 29.8706 45.0837C31.1774 45.4591 32.5578 45.655 34 45.655C41.7416 45.655 47.875 39.8539 47.875 32.89C47.875 25.9261 41.7416 20.125 34 20.125C32.071 20.125 30.2313 20.4885 28.5783 21.1413C28.0004 21.3696 27.3469 21.0861 27.1187 20.5083C26.8904 19.9304 27.1739 19.2769 27.7517 19.0487Z" fill="#6F5643"/>
<path fill-rule="evenodd" clip-rule="evenodd" d="M41.7014 29.2748C41.962 29.6877 41.9264 30.2217 41.6133 30.5964L35.9733 37.3464C35.622 37.7669 35.0189 37.8731 34.5451 37.598L32.6117 36.4753L27.5166 37.718C27.044 37.8333 26.5509 37.6318 26.2943 37.2185C26.0377 36.8053 26.0757 36.274 26.3886 35.9015L32.0586 29.1515C32.399 28.7463 32.9757 28.6331 33.444 28.8795L35.6254 30.0277L40.4706 28.7853C40.9436 28.664 41.4409 28.8618 41.7014 29.2748ZM37.6493 31.8315L35.7644 32.3148C35.4942 32.3841 35.2079 32.3505 34.961 32.2206L33.1983 31.2929L30.3212 34.718L32.5184 34.1821C32.8007 34.1133 33.0987 34.1563 33.3499 34.3022L34.8548 35.176L37.6493 31.8315Z" fill="#6F5643"/>
<rect x="-0.5" y="0.5" width="67" height="67" rx="33.5" transform="matrix(-1 0 0 1 67 0)" stroke="#6F5643"/>
</svg>
