<svg width="68" height="68" viewBox="0 0 68 68" fill="none" xmlns="http://www.w3.org/2000/svg">
<rect x="-0.5" y="0.5" width="67" height="67" rx="33.5" transform="matrix(-1 0 0 1 67 0)" fill="#FAF4D7"/>
<path fill-rule="evenodd" clip-rule="evenodd" d="M37 26.125C35.1313 26.125 33.625 27.6313 33.625 29.5V35.5H30.625V37H33.625V47.875H35.875V37H39.8157L40.1157 35.5H35.875V29.95C35.875 29.0737 36.5737 28.375 37.45 28.375H40.375V26.125H37ZM31.375 29.5C31.375 26.3887 33.8887 23.875 37 23.875H41.05C41.9263 23.875 42.625 24.5737 42.625 25.45V29.05C42.625 29.9263 41.9263 30.625 41.05 30.625H38.125V33.25H40.945C41.9423 33.25 42.6845 34.1583 42.4823 35.1397L41.9101 38.0007C41.7591 38.7057 41.1394 39.25 40.375 39.25H38.125V50.125H31.375V39.25H29.95C29.0737 39.25 28.375 38.5513 28.375 37.675V34.825C28.375 33.9487 29.0737 33.25 29.95 33.25H31.375V29.5Z" fill="#6F5643"/>
<path fill-rule="evenodd" clip-rule="evenodd" d="M20.642 20.642C22.6437 18.6403 25.639 17.875 29.5 17.875H38.5C42.361 17.875 45.3563 18.6403 47.358 20.642C49.3597 22.6437 50.125 25.639 50.125 29.5V38.5C50.125 42.361 49.3597 45.3563 47.358 47.358C45.3563 49.3597 42.361 50.125 38.5 50.125H29.5C25.639 50.125 22.6437 49.3597 20.642 47.358C18.6403 45.3563 17.875 42.361 17.875 38.5V35.245C17.875 34.6237 18.3787 34.12 19 34.12C19.6213 34.12 20.125 34.6237 20.125 35.245V38.5C20.125 42.139 20.8597 44.3937 22.233 45.767C23.6063 47.1403 25.861 47.875 29.5 47.875H38.5C42.139 47.875 44.3937 47.1403 45.767 45.767C47.1403 44.3937 47.875 42.139 47.875 38.5V29.5C47.875 25.861 47.1403 23.6063 45.767 22.233C44.3937 20.8597 42.139 20.125 38.5 20.125H29.5C25.861 20.125 23.6063 20.8597 22.233 22.233C20.8597 23.6063 20.125 25.861 20.125 29.5C20.125 30.1213 19.6213 30.625 19 30.625C18.3787 30.625 17.875 30.1213 17.875 29.5C17.875 25.639 18.6403 22.6437 20.642 20.642Z" fill="#6F5643"/>
<rect x="-0.5" y="0.5" width="67" height="67" rx="33.5" transform="matrix(-1 0 0 1 67 0)" stroke="#6F5643"/>
</svg>
