<svg width="1354" height="185" viewBox="0 0 1354 185" fill="none" xmlns="http://www.w3.org/2000/svg">
<g filter="url(#filter0_b_198_9542)">
<path d="M54.2 27.36L89.72 22.56L72.68 102.72C80.36 102.08 87.4 98.72 93.8 92.64C100.36 86.56 105.48 79.04 109.16 70.08C112.84 61.12 114.68 52.32 114.68 43.68C114.68 34.08 112.2 26.24 107.24 20.16C102.28 14.08 94.84 11.04 84.92 11.04C65.4 11.04 50.12 16.16 39.08 26.4C28.2 36.64 22.76 50.96 22.76 69.36C22.76 75.28 23.32 79.44 24.44 81.84C25.56 84.08 26.12 85.36 26.12 85.68C17.48 85.68 11 83.92 6.68 80.4C2.52 76.72 0.44 70.72 0.44 62.4C0.44 52.16 4.6 42.24 12.92 32.64C21.4 22.88 32.2 15.04 45.32 9.12C58.44 3.03999 71.56 -1.43051e-05 84.68 -1.43051e-05C97.32 -1.43051e-05 107.88 2.15999 116.36 6.47999C124.84 10.8 131.08 16.56 135.08 23.76C139.24 30.8 141.32 38.64 141.32 47.28C141.32 57.68 138.44 67.84 132.68 77.76C127.08 87.68 119 95.84 108.44 102.24C97.88 108.48 85.72 111.6 71.96 111.6H70.76L56.12 180H21.56L54.2 27.36ZM174.978 181.44C165.858 181.44 158.258 178.32 152.178 172.08C146.098 165.84 143.058 156.08 143.058 142.8C143.058 130.96 145.378 118.56 150.018 105.6C154.818 92.48 161.858 81.44 171.138 72.48C180.578 63.36 191.778 58.8 204.738 58.8C211.298 58.8 216.178 59.92 219.378 62.16C222.578 64.4 224.178 67.36 224.178 71.04V72.72L226.818 60H261.378L244.098 141.6C243.458 144 243.138 146.56 243.138 149.28C243.138 156.16 246.418 159.6 252.978 159.6C257.458 159.6 261.298 157.52 264.498 153.36C267.858 149.2 270.498 143.76 272.418 137.04H282.498C276.578 154.32 269.218 166.08 260.418 172.32C251.778 178.4 243.058 181.44 234.258 181.44C227.538 181.44 222.098 179.6 217.938 175.92C213.938 172.08 211.538 166.56 210.738 159.36C206.098 165.92 200.898 171.28 195.138 175.44C189.538 179.44 182.818 181.44 174.978 181.44ZM190.578 158.16C194.578 158.16 198.498 156.32 202.338 152.64C206.338 148.8 209.058 143.6 210.498 137.04L222.018 82.8C222.018 80.72 221.218 78.72 219.618 76.8C218.018 74.72 215.538 73.68 212.178 73.68C205.778 73.68 200.018 77.44 194.898 84.96C189.778 92.32 185.778 101.28 182.898 111.84C180.018 122.24 178.578 131.44 178.578 139.44C178.578 147.44 179.698 152.56 181.938 154.8C184.338 157.04 187.218 158.16 190.578 158.16ZM368.746 181.44C358.986 181.44 351.786 178.88 347.146 173.76C342.666 168.48 340.426 162 340.426 154.32C340.426 150.96 340.826 147.2 341.626 143.04C342.426 138.72 343.226 134.56 344.026 130.56C344.986 126.56 345.626 124 345.946 122.88C347.226 117.28 348.426 111.76 349.546 106.32C350.666 100.88 351.226 96.48 351.226 93.12C351.226 84.96 348.346 80.88 342.586 80.88C338.426 80.88 334.746 82.96 331.546 87.12C328.346 91.12 325.786 96.4 323.866 102.96L307.546 180H272.986L298.426 60H332.986L330.346 72.48C338.346 63.52 347.706 59.04 358.426 59.04C366.586 59.04 373.066 61.28 377.866 65.76C382.666 70.24 385.066 77.04 385.066 86.16C385.066 90.8 384.506 96 383.386 101.76C382.266 107.36 380.666 114.24 378.586 122.4C377.306 127.36 376.106 132.24 374.986 137.04C374.026 141.68 373.546 145.36 373.546 148.08C373.546 151.28 374.266 153.76 375.706 155.52C377.146 157.28 379.626 158.16 383.146 158.16C387.946 158.16 391.786 156.48 394.666 153.12C397.546 149.6 400.426 144.24 403.306 137.04H413.386C407.466 154.64 400.586 166.48 392.746 172.56C385.066 178.48 377.066 181.44 368.746 181.44ZM447.198 181.44C435.358 181.44 426.158 178.4 419.598 172.32C413.038 166.08 409.758 156.4 409.758 143.28C409.758 132.24 411.918 120.08 416.238 106.8C420.718 93.52 427.758 82.08 437.358 72.48C447.118 62.72 459.438 57.84 474.318 57.84C483.918 57.84 490.718 59.92 494.718 64.08C498.878 68.24 500.958 73.52 500.958 79.92C500.958 85.52 499.758 89.84 497.358 92.88C494.958 95.92 491.918 97.44 488.238 97.44C485.518 97.44 482.718 96.48 479.838 94.56C481.758 89.28 482.718 84.56 482.718 80.4C482.718 77.36 482.158 74.96 481.038 73.2C479.918 71.44 478.238 70.56 475.998 70.56C471.198 70.56 466.398 74.48 461.598 82.32C456.798 90.16 452.878 99.68 449.838 110.88C446.798 122.08 445.278 132.16 445.278 141.12C445.278 148.96 446.638 154.32 449.358 157.2C452.078 159.92 456.478 161.28 462.558 161.28C471.198 161.28 478.558 159.28 484.638 155.28C490.878 151.28 497.678 145.2 505.038 137.04H513.198C495.438 166.64 473.438 181.44 447.198 181.44ZM543.388 181.44C534.268 181.44 526.668 178.32 520.588 172.08C514.508 165.84 511.468 156.08 511.468 142.8C511.468 130.96 513.788 118.56 518.428 105.6C523.228 92.48 530.268 81.44 539.548 72.48C548.988 63.36 560.188 58.8 573.148 58.8C579.708 58.8 584.588 59.92 587.788 62.16C590.988 64.4 592.588 67.36 592.588 71.04V72.72L595.228 60H629.788L612.508 141.6C611.868 144 611.548 146.56 611.548 149.28C611.548 156.16 614.828 159.6 621.388 159.6C625.868 159.6 629.708 157.52 632.908 153.36C636.268 149.2 638.908 143.76 640.828 137.04H650.908C644.988 154.32 637.628 166.08 628.828 172.32C620.188 178.4 611.468 181.44 602.668 181.44C595.948 181.44 590.508 179.6 586.348 175.92C582.348 172.08 579.948 166.56 579.148 159.36C574.508 165.92 569.308 171.28 563.548 175.44C557.948 179.44 551.228 181.44 543.388 181.44ZM558.988 158.16C562.988 158.16 566.908 156.32 570.748 152.64C574.748 148.8 577.468 143.6 578.908 137.04L590.428 82.8C590.428 80.72 589.628 78.72 588.028 76.8C586.428 74.72 583.948 73.68 580.588 73.68C574.188 73.68 568.428 77.44 563.308 84.96C558.188 92.32 554.188 101.28 551.308 111.84C548.428 122.24 546.988 131.44 546.988 139.44C546.988 147.44 548.108 152.56 550.348 154.8C552.748 157.04 555.628 158.16 558.988 158.16ZM740.756 181.44C730.836 181.44 723.316 179.12 718.196 174.48C713.076 169.68 710.516 162.88 710.516 154.08C710.516 150.24 710.996 146.08 711.956 141.6L713.876 132.24C714.516 129.52 714.836 126.56 714.836 123.36C714.836 115.68 711.956 111.84 706.196 111.84C703.636 111.84 700.916 112.56 698.036 114C695.316 115.44 692.116 117.68 688.436 120.72L675.956 180H641.396L676.196 16.8L711.716 12L693.716 96.48L740.036 60H763.796L715.796 93.36C718.196 92.72 720.836 92.4 723.716 92.4C732.356 92.4 738.916 95.04 743.396 100.32C747.876 105.6 750.116 112.32 750.116 120.48C750.116 123.84 749.796 126.88 749.156 129.6L746.516 141.6C745.716 144.48 745.316 147.04 745.316 149.28C745.316 155.2 748.436 158.16 754.676 158.16C759.476 158.16 763.316 156.48 766.196 153.12C769.076 149.6 771.956 144.24 774.836 137.04H784.916C774.996 166.64 760.276 181.44 740.756 181.44ZM818.174 181.44C806.494 181.44 797.374 178.4 790.814 172.32C784.254 166.08 780.974 156.4 780.974 143.28C780.974 132.24 783.134 120.08 787.454 106.8C791.774 93.52 798.814 82.08 808.574 72.48C818.334 62.72 830.734 57.84 845.774 57.84C863.374 57.84 872.174 65.52 872.174 80.88C872.174 89.84 869.614 98.08 864.494 105.6C859.374 113.12 852.574 119.2 844.094 123.84C835.614 128.32 826.574 130.88 816.974 131.52C816.654 135.04 816.494 137.44 816.494 138.72C816.494 152 821.454 158.64 831.374 158.64C835.854 158.64 840.654 157.44 845.774 155.04C850.894 152.64 855.534 149.6 859.694 145.92C855.374 169.6 841.534 181.44 818.174 181.44ZM818.654 120C824.734 119.84 830.414 117.84 835.694 114C841.134 110.16 845.454 105.28 848.654 99.36C852.014 93.28 853.694 86.96 853.694 80.4C853.694 73.84 851.694 70.56 847.694 70.56C842.094 70.56 836.494 75.68 830.894 85.92C825.454 96 821.374 107.36 818.654 120ZM890.705 107.76H938.705L934.625 126.72H886.385L890.705 107.76ZM1053.91 184.08C1047.51 184.08 1041.91 182.72 1037.11 180C1032.47 177.44 1030.15 172.88 1030.15 166.32C1030.15 162.16 1031.19 157.52 1033.27 152.4C1036.15 155.6 1038.79 157.84 1041.19 159.12C1043.75 160.4 1046.47 161.04 1049.35 161.04C1057.35 161.04 1063.27 156.56 1067.11 147.6C1071.11 138.64 1073.11 128.72 1073.11 117.84C1073.11 97.52 1065.51 87.36 1050.31 87.36C1045.99 87.36 1042.31 87.6 1039.27 88.08L1019.59 180H985.034L1017.67 27.36L1053.19 22.56L1041.91 75.84H1043.35C1049.43 75.84 1055.11 73.92 1060.39 70.08C1065.67 66.08 1069.91 61.12 1073.11 55.2C1076.31 49.12 1077.91 43.04 1077.91 36.96C1077.91 29.6 1075.27 23.44 1069.99 18.48C1064.87 13.52 1056.95 11.04 1046.23 11.04C1036.47 11.04 1026.95 13.28 1017.67 17.76C1008.39 22.08 1000.79 28.64 994.874 37.44C989.114 46.24 986.234 56.88 986.234 69.36C986.234 75.28 986.794 79.44 987.914 81.84C989.034 84.08 989.594 85.36 989.594 85.68C981.114 85.68 974.714 84 970.394 80.64C966.074 77.12 963.914 71.44 963.914 63.6C963.914 52.72 967.994 42.4 976.154 32.64C984.314 22.88 995.114 15.04 1008.55 9.12C1021.99 3.03999 1036.15 -1.43051e-05 1051.03 -1.43051e-05C1062.23 -1.43051e-05 1071.67 1.75999 1079.35 5.27999C1087.03 8.79999 1092.71 13.44 1096.39 19.2C1100.23 24.96 1102.15 31.28 1102.15 38.16C1102.15 45.52 1100.07 52.64 1095.91 59.52C1091.75 66.4 1085.83 72 1078.15 76.32C1087.75 78.08 1094.87 82.56 1099.51 89.76C1104.15 96.8 1106.47 105.2 1106.47 114.96C1106.47 124.08 1104.71 134 1101.19 144.72C1097.83 155.44 1092.15 164.72 1084.15 172.56C1076.31 180.24 1066.23 184.08 1053.91 184.08ZM1153.18 181.44C1144.06 181.44 1136.46 178.32 1130.38 172.08C1124.3 165.84 1121.26 156.08 1121.26 142.8C1121.26 130.96 1123.58 118.56 1128.22 105.6C1133.02 92.48 1140.06 81.44 1149.34 72.48C1158.78 63.36 1169.98 58.8 1182.94 58.8C1189.5 58.8 1194.38 59.92 1197.58 62.16C1200.78 64.4 1202.38 67.36 1202.38 71.04V72.72L1205.02 60H1239.58L1222.3 141.6C1221.66 144 1221.34 146.56 1221.34 149.28C1221.34 156.16 1224.62 159.6 1231.18 159.6C1235.66 159.6 1239.5 157.52 1242.7 153.36C1246.06 149.2 1248.7 143.76 1250.62 137.04H1260.7C1254.78 154.32 1247.42 166.08 1238.62 172.32C1229.98 178.4 1221.26 181.44 1212.46 181.44C1205.74 181.44 1200.3 179.6 1196.14 175.92C1192.14 172.08 1189.74 166.56 1188.94 159.36C1184.3 165.92 1179.1 171.28 1173.34 175.44C1167.74 179.44 1161.02 181.44 1153.18 181.44ZM1168.78 158.16C1172.78 158.16 1176.7 156.32 1180.54 152.64C1184.54 148.8 1187.26 143.6 1188.7 137.04L1200.22 82.8C1200.22 80.72 1199.42 78.72 1197.82 76.8C1196.22 74.72 1193.74 73.68 1190.38 73.68C1183.98 73.68 1178.22 77.44 1173.1 84.96C1167.98 92.32 1163.98 101.28 1161.1 111.84C1158.22 122.24 1156.78 131.44 1156.78 139.44C1156.78 147.44 1157.9 152.56 1160.14 154.8C1162.54 157.04 1165.42 158.16 1168.78 158.16ZM1276.63 60H1311.19L1308.07 74.88C1313.51 70.08 1318.39 66.4 1322.71 63.84C1327.19 61.28 1331.99 60 1337.11 60C1342.23 60 1346.23 61.76 1349.11 65.28C1352.15 68.8 1353.67 73.04 1353.67 78C1353.67 82.64 1352.15 86.72 1349.11 90.24C1346.07 93.76 1341.83 95.52 1336.39 95.52C1332.87 95.52 1330.47 94.72 1329.19 93.12C1328.07 91.36 1327.19 88.88 1326.55 85.68C1326.07 83.6 1325.59 82.08 1325.11 81.12C1324.63 80.16 1323.75 79.68 1322.47 79.68C1319.11 79.68 1316.23 80.4 1313.83 81.84C1311.59 83.12 1308.63 85.44 1304.95 88.8L1285.75 180H1251.19L1276.63 60Z" fill="#5A4737" fill-opacity="0.1"/>
<path d="M54.2 27.36L51.9971 11.0582L40.5327 12.6074L38.1137 23.9202L54.2 27.36ZM89.72 22.56L105.81 25.9804L110.668 3.12967L87.5171 6.25817L89.72 22.56ZM72.68 102.72L56.5895 99.2996L51.9869 120.951L74.0461 119.113L72.68 102.72ZM93.8 92.64L82.6179 80.5751L82.5435 80.644L82.4701 80.7138L93.8 92.64ZM109.16 70.08L93.9434 63.8303V63.8303L109.16 70.08ZM107.24 20.16L94.4935 30.5585L107.24 20.16ZM39.08 26.4L27.8933 14.3393L27.8494 14.38L27.8058 14.4211L39.08 26.4ZM24.44 81.84L9.53329 88.7965L9.62728 88.9979L9.72667 89.1967L24.44 81.84ZM26.12 85.68V102.13H42.57V85.68H26.12ZM6.68 80.4L-4.21934 92.721L-3.96956 92.942L-3.71102 93.1526L6.68 80.4ZM12.92 32.64L0.502359 21.8509L0.495632 21.8586L0.488914 21.8664L12.92 32.64ZM45.32 9.12L52.0857 24.1143L52.1613 24.0801L52.2366 24.0453L45.32 9.12ZM116.36 6.47999L108.893 21.1376H108.893L116.36 6.47999ZM135.08 23.76L120.7 31.7488L120.806 31.9402L120.918 32.1286L135.08 23.76ZM132.68 77.76L118.454 69.4999L118.404 69.5863L118.355 69.6733L132.68 77.76ZM108.44 102.24L116.809 116.402L116.888 116.356L116.966 116.308L108.44 102.24ZM70.76 111.6V95.15H57.4583L54.6743 108.157L70.76 111.6ZM56.12 180V196.45H69.4217L72.2057 183.443L56.12 180ZM21.56 180L5.47367 176.56L1.2205 196.45H21.56V180ZM56.4029 43.6618L91.923 38.8618L87.5171 6.25817L51.9971 11.0582L56.4029 43.6618ZM73.6295 19.1396L56.5895 99.2996L88.7705 106.14L105.81 25.9804L73.6295 19.1396ZM74.0461 119.113C85.9929 118.118 96.4297 112.831 105.13 104.566L82.4701 80.7138C78.3703 84.6086 74.7271 86.0424 71.3139 86.3268L74.0461 119.113ZM104.982 104.705C113.435 96.8709 119.866 87.312 124.377 76.3297L93.9434 63.8303C91.094 70.768 87.2854 76.2491 82.6179 80.5751L104.982 104.705ZM124.377 76.3297C128.773 65.6264 131.13 54.7084 131.13 43.68H98.23C98.23 49.9316 96.9074 56.6136 93.9434 63.8303L124.377 76.3297ZM131.13 43.68C131.13 31.1655 127.842 19.3906 119.987 9.76151L94.4935 30.5585C96.5581 33.0894 98.23 36.9945 98.23 43.68H131.13ZM119.987 9.76152C111.103 -1.12812 98.3606 -5.41002 84.92 -5.41002V27.49C91.3194 27.49 93.4571 29.2881 94.4935 30.5585L119.987 9.76152ZM84.92 -5.41002C62.5193 -5.41002 42.7924 0.519802 27.8933 14.3393L50.2667 38.4607C57.4476 31.8002 68.2807 27.49 84.92 27.49V-5.41002ZM27.8058 14.4211C12.8841 28.465 6.31 47.5497 6.31 69.36H39.21C39.21 54.3703 43.5159 44.8149 50.3543 38.3789L27.8058 14.4211ZM6.31 69.36C6.31 75.4261 6.74771 82.8274 9.53329 88.7965L39.3467 74.8835C39.5978 75.4215 39.6637 75.7186 39.6407 75.6289C39.6221 75.5562 39.5568 75.2736 39.483 74.7254C39.3315 73.6002 39.21 71.8581 39.21 69.36H6.31ZM9.72667 89.1967C10.2425 90.2283 10.5167 90.8163 10.6292 91.0735C10.6943 91.2223 10.6148 91.0549 10.4885 90.6943C10.4265 90.5171 10.2813 90.0904 10.1349 89.5047C10.0595 89.2031 9.95664 88.7521 9.86774 88.1933C9.7846 87.6707 9.67 86.7873 9.67 85.68H42.57C42.57 83.6272 42.1802 82.0356 42.0526 81.5253C41.8712 80.7996 41.6735 80.2029 41.5415 79.8257C41.2752 79.0651 40.9857 78.3777 40.7708 77.8865C40.3233 76.8637 39.7575 75.6917 39.1533 74.4833L9.72667 89.1967ZM26.12 69.23C19.2912 69.23 17.223 67.7712 17.071 67.6474L-3.71102 93.1526C4.77703 100.069 15.6688 102.13 26.12 102.13V69.23ZM17.5793 68.079C17.905 68.3671 17.791 68.4685 17.5426 67.7519C17.2569 66.928 16.89 65.2625 16.89 62.4H-16.01C-16.01 73.0665 -13.3604 84.6347 -4.21934 92.721L17.5793 68.079ZM16.89 62.4C16.89 57.0044 18.9766 50.7688 25.3511 43.4136L0.488914 21.8664C-9.77657 33.7112 -16.01 47.3156 -16.01 62.4H16.89ZM25.3376 43.4291C32.0911 35.6563 40.8844 29.1685 52.0857 24.1143L38.5543 -5.87426C23.5157 0.911469 10.7089 10.1037 0.502359 21.8509L25.3376 43.4291ZM52.2366 24.0453C63.4127 18.8661 74.1837 16.45 84.68 16.45V-16.45C68.9364 -16.45 53.4673 -12.7861 38.4034 -5.80526L52.2366 24.0453ZM84.68 16.45C95.5409 16.45 103.357 18.3176 108.893 21.1376L123.827 -8.17761C112.403 -13.9976 99.0991 -16.45 84.68 -16.45V16.45ZM108.893 21.1376C114.923 24.2093 118.526 27.8353 120.7 31.7488L149.46 15.7712C143.634 5.2847 134.758 -2.60929 123.827 -8.17761L108.893 21.1376ZM120.918 32.1286C123.494 36.4888 124.87 41.4106 124.87 47.28H157.77C157.77 35.8694 154.986 25.1112 149.242 15.3914L120.918 32.1286ZM124.87 47.28C124.87 54.4865 122.911 61.8236 118.454 69.4999L146.906 86.0201C153.969 73.8564 157.77 60.8735 157.77 47.28H124.87ZM118.355 69.6733C114.258 76.9309 108.268 83.1087 99.9139 88.172L116.966 116.308C129.732 108.571 139.902 98.429 147.005 85.8467L118.355 69.6733ZM100.071 88.0778C92.3443 92.6437 83.1431 95.15 71.96 95.15V128.05C88.2969 128.05 103.416 124.316 116.809 116.402L100.071 88.0778ZM71.96 95.15H70.76V128.05H71.96V95.15ZM54.6743 108.157L40.0343 176.557L72.2057 183.443L86.8457 115.043L54.6743 108.157ZM56.12 163.55H21.56V196.45H56.12V163.55ZM37.6463 183.44L70.2863 30.7998L38.1137 23.9202L5.47367 176.56L37.6463 183.44ZM152.178 172.08L140.396 183.56L152.178 172.08ZM150.018 105.6L134.57 99.9481L134.55 100.002L134.531 100.055L150.018 105.6ZM171.138 72.48L182.564 84.3141L182.568 84.3107L171.138 72.48ZM219.378 62.16L228.812 48.6836L219.378 62.16ZM224.178 72.72H207.728L240.285 76.0629L224.178 72.72ZM226.818 60V43.55H213.432L210.711 56.6571L226.818 60ZM261.378 60L277.471 63.408L281.676 43.55H261.378V60ZM244.098 141.6L259.993 145.839L260.103 145.426L260.191 145.008L244.098 141.6ZM264.498 153.36L251.701 143.024L251.578 143.176L251.459 143.33L264.498 153.36ZM272.418 137.04V120.59H260.01L256.601 132.521L272.418 137.04ZM282.498 137.04L298.06 142.371L305.522 120.59H282.498V137.04ZM260.418 172.32L269.885 185.773L269.909 185.756L269.933 185.739L260.418 172.32ZM217.938 175.92L206.546 187.787L206.788 188.019L207.039 188.241L217.938 175.92ZM210.738 159.36L227.088 157.543L222.307 114.518L197.308 149.861L210.738 159.36ZM195.138 175.44L204.7 188.826L204.735 188.801L204.769 188.776L195.138 175.44ZM202.338 152.64L213.72 164.517L213.725 164.512L213.73 164.507L202.338 152.64ZM210.498 137.04L226.566 140.567L226.578 140.512L226.589 140.458L210.498 137.04ZM222.018 82.8L238.109 86.2176L238.468 84.5276V82.8H222.018ZM219.618 76.8L206.579 86.8297L206.775 87.0843L206.981 87.331L219.618 76.8ZM194.898 84.96L208.402 94.354L208.449 94.2862L208.496 94.2179L194.898 84.96ZM182.898 111.84L198.751 116.23L198.76 116.199L198.768 116.168L182.898 111.84ZM181.938 154.8L170.306 166.432L170.507 166.632L170.714 166.826L181.938 154.8ZM174.978 164.99C170.063 164.99 166.785 163.5 163.96 160.6L140.396 183.56C149.731 193.14 161.653 197.89 174.978 197.89V164.99ZM163.96 160.6C162.12 158.711 159.508 153.99 159.508 142.8H126.608C126.608 158.17 130.077 172.969 140.396 183.56L163.96 160.6ZM159.508 142.8C159.508 133.13 161.401 122.609 165.505 111.145L134.531 100.055C129.355 114.511 126.608 128.79 126.608 142.8H159.508ZM165.467 111.252C169.483 100.273 175.221 91.404 182.564 84.3141L159.712 60.6458C148.495 71.476 140.153 84.6871 134.57 99.9481L165.467 111.252ZM182.568 84.3107C188.985 78.1114 196.103 75.25 204.738 75.25V42.35C187.453 42.35 172.172 48.6086 159.708 60.6493L182.568 84.3107ZM204.738 75.25C207.138 75.25 208.711 75.4602 209.638 75.6732C210.57 75.8871 210.494 76.0206 209.945 75.6364L228.812 48.6836C221.536 43.5904 212.609 42.35 204.738 42.35V75.25ZM209.945 75.6364C209.786 75.5251 209.105 74.9892 208.507 73.8822C207.889 72.7393 207.728 71.6694 207.728 71.04H240.628C240.628 61.6142 236.09 53.7786 228.812 48.6836L209.945 75.6364ZM207.728 71.04V72.72H240.628V71.04H207.728ZM240.285 76.0629L242.925 63.3429L210.711 56.6571L208.071 69.3771L240.285 76.0629ZM226.818 76.45H261.378V43.55H226.818V76.45ZM245.285 56.592L228.005 138.192L260.191 145.008L277.471 63.408L245.285 56.592ZM228.204 137.361C227.162 141.268 226.688 145.264 226.688 149.28H259.588C259.588 147.856 259.755 146.732 259.993 145.839L228.204 137.361ZM226.688 149.28C226.688 155.065 228.054 162.458 233.693 168.372C239.471 174.432 246.957 176.05 252.978 176.05V143.15C252.439 143.15 255.005 143.048 257.504 145.668C259.862 148.142 259.588 150.375 259.588 149.28H226.688ZM252.978 176.05C263.478 176.05 271.825 170.815 277.537 163.39L251.459 143.33C250.986 143.946 250.911 143.831 251.383 143.576C251.615 143.45 251.904 143.332 252.228 143.251C252.55 143.171 252.813 143.15 252.978 143.15V176.05ZM277.295 163.696C282.397 157.38 285.886 149.78 288.235 141.559L256.601 132.521C255.11 137.74 253.319 141.02 251.701 143.024L277.295 163.696ZM272.418 153.49H282.498V120.59H272.418V153.49ZM266.936 131.709C261.437 147.761 255.534 155.617 250.903 158.901L269.933 185.739C282.902 176.543 291.72 160.879 298.06 142.371L266.936 131.709ZM250.951 158.867C244.515 163.396 239.036 164.99 234.258 164.99V197.89C247.08 197.89 259.041 193.404 269.885 185.773L250.951 158.867ZM234.258 164.99C230.67 164.99 229.388 164.086 228.837 163.599L207.039 188.241C214.808 195.114 224.406 197.89 234.258 197.89V164.99ZM229.33 164.053C228.863 163.605 227.594 162.105 227.088 157.543L194.389 161.177C195.482 171.015 199.013 180.555 206.546 187.787L229.33 164.053ZM197.308 149.861C193.579 155.133 189.619 159.134 185.507 162.104L204.769 188.776C212.177 183.426 218.617 176.707 224.168 168.859L197.308 149.861ZM185.577 162.054C183.145 163.791 179.885 164.99 174.978 164.99V197.89C185.751 197.89 195.931 195.089 204.7 188.826L185.577 162.054ZM190.578 174.61C200.067 174.61 207.855 170.137 213.72 164.517L190.956 140.763C190.043 141.638 189.55 141.879 189.528 141.889C189.527 141.889 189.634 141.84 189.841 141.792C190.051 141.743 190.305 141.71 190.578 141.71V174.61ZM213.73 164.507C220.537 157.973 224.577 149.628 226.566 140.567L194.431 133.513C193.54 137.572 192.14 139.627 190.946 140.773L213.73 164.507ZM226.589 140.458L238.109 86.2176L205.927 79.3824L194.407 133.622L226.589 140.458ZM238.468 82.8C238.468 76.1343 235.802 70.5244 232.255 66.269L206.981 87.331C206.849 87.1725 206.479 86.6858 206.145 85.8494C205.796 84.9768 205.568 83.9273 205.568 82.8H238.468ZM232.657 66.7702C227.097 59.543 219.077 57.23 212.178 57.23V90.13C212.176 90.13 211.987 90.1303 211.649 90.0702C211.306 90.0092 210.802 89.884 210.196 89.6301C208.871 89.0741 207.566 88.1118 206.579 86.8297L232.657 66.7702ZM212.178 57.23C198.258 57.23 188.093 65.7263 181.301 75.7021L208.496 94.2179C210.207 91.7039 211.472 90.6521 212.05 90.2749C212.465 90.004 212.413 90.13 212.178 90.13V57.23ZM181.394 75.566C174.995 84.7648 170.296 95.5269 167.028 107.512L198.768 116.168C201.26 107.033 204.561 99.8751 208.402 94.354L181.394 75.566ZM167.045 107.45C163.897 118.817 162.128 129.543 162.128 139.44H195.028C195.028 133.337 196.139 125.663 198.751 116.23L167.045 107.45ZM162.128 139.44C162.128 144.074 162.44 148.646 163.348 152.795C164.185 156.623 165.94 162.066 170.306 166.432L193.57 143.168C194.723 144.321 195.253 145.354 195.432 145.748C195.616 146.15 195.587 146.219 195.488 145.765C195.276 144.794 195.028 142.806 195.028 139.44H162.128ZM170.714 166.826C176.238 171.982 183.16 174.61 190.578 174.61V141.71C190.759 141.71 191.24 141.747 191.86 141.989C192.488 142.232 192.931 142.558 193.162 142.774L170.714 166.826ZM347.146 173.76L334.603 184.403L334.777 184.608L334.957 184.806L347.146 173.76ZM341.626 143.04L357.78 146.147L357.791 146.091L357.801 146.035L341.626 143.04ZM344.026 130.56L328.03 126.721L327.957 127.026L327.896 127.334L344.026 130.56ZM345.946 122.88L361.763 127.399L361.884 126.975L361.983 126.545L345.946 122.88ZM331.546 87.12L344.392 97.3962L344.489 97.2739L344.585 97.1497L331.546 87.12ZM323.866 102.96L308.079 98.3392L307.903 98.9393L307.773 99.5509L323.866 102.96ZM307.546 180V196.45H320.877L323.639 183.409L307.546 180ZM272.986 180L256.894 176.588L252.683 196.45H272.986V180ZM298.426 60V43.55H285.098L282.334 56.5884L298.426 60ZM332.986 60L349.08 63.4045L353.28 43.55H332.986V60ZM330.346 72.48L314.252 69.0755L301.465 129.526L342.617 83.436L330.346 72.48ZM383.386 101.76L399.517 104.986L399.525 104.943L399.534 104.9L383.386 101.76ZM378.586 122.4L394.514 126.51L394.521 126.487L394.527 126.463L378.586 122.4ZM374.986 137.04L358.967 133.302L358.919 133.504L358.877 133.707L374.986 137.04ZM394.666 153.12L407.156 163.826L407.279 163.683L407.398 163.537L394.666 153.12ZM403.306 137.04V120.59H392.169L388.033 130.931L403.306 137.04ZM413.386 137.04L428.978 142.284L436.275 120.59H413.386V137.04ZM392.746 172.56L402.789 185.589L402.808 185.574L402.827 185.559L392.746 172.56ZM368.746 164.99C361.662 164.99 359.743 163.164 359.336 162.714L334.957 184.806C343.829 194.596 356.311 197.89 368.746 197.89V164.99ZM359.69 163.117C358.011 161.139 356.876 158.557 356.876 154.32H323.976C323.976 165.443 327.321 175.821 334.603 184.403L359.69 163.117ZM356.876 154.32C356.876 152.231 357.129 149.534 357.78 146.147L325.472 139.933C324.524 144.866 323.976 149.689 323.976 154.32H356.876ZM357.801 146.035C358.588 141.787 359.373 137.704 360.157 133.786L327.896 127.334C327.079 131.416 326.264 135.653 325.451 140.045L357.801 146.035ZM360.022 134.399C361.006 130.301 361.56 128.112 361.763 127.399L330.129 118.361C329.693 119.888 328.967 122.819 328.03 126.721L360.022 134.399ZM361.983 126.545C363.288 120.834 364.514 115.197 365.658 109.637L333.434 103.003C332.339 108.323 331.164 113.726 329.91 119.215L361.983 126.545ZM365.658 109.637C366.878 103.714 367.676 98.079 367.676 93.12H334.776C334.776 94.881 334.455 98.0463 333.434 103.003L365.658 109.637ZM367.676 93.12C367.676 87.6061 366.794 80.5288 362.505 74.4536C357.476 67.3291 349.868 64.43 342.586 64.43V97.33C342.089 97.33 340.864 97.2384 339.342 96.5199C337.736 95.7616 336.467 94.6167 335.627 93.4264C334.86 92.34 334.676 91.5447 334.674 91.5327C334.672 91.5255 334.776 91.9948 334.776 93.12H367.676ZM342.586 64.43C332.009 64.43 323.925 70.0479 318.508 77.0903L344.585 97.1497C345.156 96.4079 345.283 96.4882 344.801 96.7608C344.553 96.9008 344.205 97.0558 343.775 97.1699C343.343 97.2844 342.933 97.33 342.586 97.33V64.43ZM318.701 76.8438C313.794 82.9773 310.411 90.3705 308.079 98.3392L339.654 107.581C341.162 102.43 342.898 99.2626 344.392 97.3962L318.701 76.8438ZM307.773 99.5509L291.453 176.591L323.639 183.409L339.959 106.369L307.773 99.5509ZM307.546 163.55H272.986V196.45H307.546V163.55ZM289.079 183.412L314.519 63.4116L282.334 56.5884L256.894 176.588L289.079 183.412ZM298.426 76.45H332.986V43.55H298.426V76.45ZM316.892 56.5955L314.252 69.0755L346.44 75.8845L349.08 63.4045L316.892 56.5955ZM342.617 83.436C347.915 77.5026 352.986 75.49 358.426 75.49V42.59C342.426 42.59 328.778 49.5374 318.076 61.524L342.617 83.436ZM358.426 75.49C363.479 75.49 365.583 76.7975 366.642 77.7859L389.09 53.7341C380.549 45.7625 369.693 42.59 358.426 42.59V75.49ZM366.642 77.7859C366.975 78.0967 368.616 79.7744 368.616 86.16H401.516C401.516 74.3056 398.357 62.3833 389.09 53.7341L366.642 77.7859ZM368.616 86.16C368.616 89.5126 368.208 93.637 367.239 98.6202L399.534 104.9C400.805 98.363 401.516 92.0874 401.516 86.16H368.616ZM367.256 98.5339C366.211 103.756 364.685 110.337 362.646 118.337L394.527 126.463C396.648 118.143 398.321 110.964 399.517 104.986L367.256 98.5339ZM362.658 118.29C361.347 123.369 360.117 128.373 358.967 133.302L391.006 140.778C392.096 136.107 393.265 131.351 394.514 126.51L362.658 118.29ZM358.877 133.707C357.831 138.765 357.096 143.712 357.096 148.08H389.996C389.996 147.008 390.222 144.595 391.095 140.373L358.877 133.707ZM357.096 148.08C357.096 153.555 358.316 160.243 362.975 165.937L388.438 145.103C390.216 147.277 389.996 149.005 389.996 148.08H357.096ZM362.975 165.937C368.93 173.216 377.417 174.61 383.146 174.61V141.71C382.667 141.71 383.137 141.639 384.147 141.997C385.284 142.401 386.975 143.315 388.438 145.103L362.975 165.937ZM383.146 174.61C392.288 174.61 400.863 171.167 407.156 163.826L382.176 142.414C382.196 142.392 382.286 142.293 382.456 142.165C382.629 142.035 382.828 141.919 383.033 141.829C383.473 141.637 383.605 141.71 383.146 141.71V174.61ZM407.398 163.537C411.829 158.121 415.45 150.973 418.58 143.149L388.033 130.931C385.402 137.507 383.263 141.079 381.935 142.703L407.398 163.537ZM403.306 153.49H413.386V120.59H403.306V153.49ZM397.795 131.796C392.14 148.607 386.542 156.554 382.665 159.561L402.827 185.559C414.63 176.406 422.793 160.673 428.978 142.284L397.795 131.796ZM382.703 159.531C377.405 163.615 372.853 164.99 368.746 164.99V197.89C381.28 197.89 392.727 193.345 402.789 185.589L382.703 159.531ZM419.598 172.32L408.261 184.239L408.338 184.312L408.416 184.385L419.598 172.32ZM416.238 106.8L400.651 101.542L400.623 101.626L400.595 101.711L416.238 106.8ZM437.358 72.48L425.726 60.8481L437.358 72.48ZM494.718 64.08L482.86 75.4816L482.972 75.5979L483.086 75.7119L494.718 64.08ZM497.358 92.88L510.269 103.073V103.073L497.358 92.88ZM479.838 94.56L464.379 88.9383L459.963 101.08L470.713 108.247L479.838 94.56ZM461.598 82.32L475.628 90.9094L461.598 82.32ZM449.838 110.88L465.714 115.189L449.838 110.88ZM449.358 157.2L437.399 168.495L437.56 168.666L437.726 168.832L449.358 157.2ZM484.638 155.28L475.761 141.431L475.678 141.484L475.597 141.537L484.638 155.28ZM505.038 137.04V120.59H497.723L492.823 126.022L505.038 137.04ZM513.198 137.04L527.304 145.503L542.252 120.59H513.198V137.04ZM447.198 164.99C438.13 164.99 433.422 162.703 430.78 160.255L408.416 184.385C418.894 194.097 432.586 197.89 447.198 197.89V164.99ZM430.936 160.401C428.872 158.438 426.208 153.937 426.208 143.28H393.308C393.308 158.863 397.204 173.722 408.261 184.239L430.936 160.401ZM426.208 143.28C426.208 134.356 427.961 123.94 431.881 111.889L400.595 101.711C395.875 116.22 393.308 130.124 393.308 143.28H426.208ZM431.825 112.058C435.522 101.099 441.24 91.8614 448.99 84.1119L425.726 60.8481C414.276 72.2986 405.914 85.9411 400.651 101.542L431.825 112.058ZM448.99 84.1119C455.409 77.6931 463.425 74.29 474.318 74.29V41.39C455.452 41.39 438.827 47.7469 425.726 60.8481L448.99 84.1119ZM474.318 74.29C478.018 74.29 480.403 74.7012 481.806 75.1305C483.143 75.5394 483.204 75.8392 482.86 75.4816L506.576 52.6784C497.948 43.7058 485.567 41.39 474.318 41.39V74.29ZM483.086 75.7119C483.875 76.5005 484.508 77.4604 484.508 79.92H517.408C517.408 69.5796 513.881 59.9795 506.35 52.4481L483.086 75.7119ZM484.508 79.92C484.508 81.5845 484.326 82.535 484.208 82.9573C484.102 83.3396 484.096 83.1313 484.447 82.6869L510.269 103.073C515.787 96.0838 517.408 87.6191 517.408 79.92H484.508ZM484.447 82.6868C484.535 82.5754 484.998 82.0486 485.921 81.5867C486.871 81.112 487.74 80.99 488.238 80.99V113.89C497.251 113.89 504.939 109.824 510.269 103.073L484.447 82.6868ZM488.238 80.99C488.847 80.99 489.267 81.1023 489.433 81.1592C489.575 81.2078 489.419 81.1768 488.963 80.8728L470.713 108.247C475.562 111.48 481.489 113.89 488.238 113.89V80.99ZM495.298 100.182C497.658 93.6905 499.168 87.0186 499.168 80.4H466.268C466.268 82.1014 465.858 84.8695 464.379 88.9383L495.298 100.182ZM499.168 80.4C499.168 75.5824 498.318 69.7137 494.916 64.3684L467.16 82.0316C466.562 81.0918 466.345 80.3448 466.278 80.0579C466.215 79.7873 466.268 79.8587 466.268 80.4H499.168ZM494.916 64.3684C490.519 57.4587 483.365 54.11 475.998 54.11V87.01C474.94 87.01 473.212 86.7908 471.305 85.7919C469.348 84.7667 467.986 83.329 467.16 82.0316L494.916 64.3684ZM475.998 54.11C461.795 54.11 452.73 65.3003 447.569 73.7306L475.628 90.9094C476.518 89.4551 477.296 88.368 477.941 87.5776C478.592 86.7805 479.025 86.3869 479.203 86.241C479.378 86.0985 479.189 86.2905 478.617 86.5243C478.002 86.7753 477.096 87.01 475.998 87.01V54.11ZM447.569 73.7306C441.772 83.198 437.31 94.2393 433.963 106.571L465.714 115.189C468.447 105.121 471.824 97.122 475.628 90.9094L447.569 73.7306ZM433.963 106.571C430.647 118.786 428.828 130.35 428.828 141.12H461.728C461.728 133.97 462.949 125.374 465.714 115.189L433.963 106.571ZM428.828 141.12C428.828 149.602 430.039 160.702 437.399 168.495L461.317 145.905C462.494 147.151 462.492 147.958 462.243 146.974C462.006 146.039 461.728 144.194 461.728 141.12H428.828ZM437.726 168.832C444.914 176.02 454.565 177.73 462.558 177.73V144.83C461.643 144.83 460.943 144.778 460.43 144.712C459.916 144.645 459.642 144.57 459.556 144.544C459.411 144.499 460.119 144.697 460.99 145.568L437.726 168.832ZM462.558 177.73C473.8 177.73 484.446 175.097 493.679 169.023L475.597 141.537C472.671 143.463 468.596 144.83 462.558 144.83V177.73ZM493.516 169.129C501.428 164.057 509.336 156.836 517.253 148.058L492.823 126.022C486.02 133.564 480.328 138.503 475.761 141.431L493.516 169.129ZM505.038 153.49H513.198V120.59H505.038V153.49ZM499.092 128.577C483.24 154.997 465.853 164.99 447.198 164.99V197.89C481.023 197.89 507.636 178.283 527.304 145.503L499.092 128.577ZM520.588 172.08L508.806 183.56L520.588 172.08ZM518.428 105.6L502.979 99.9481L502.959 100.002L502.94 100.055L518.428 105.6ZM539.548 72.48L550.974 84.3141L550.977 84.3107L539.548 72.48ZM587.788 62.16L597.221 48.6836H597.221L587.788 62.16ZM592.588 72.72H576.138L608.694 76.0629L592.588 72.72ZM595.228 60V43.55H581.841L579.121 56.6571L595.228 60ZM629.788 60L645.881 63.408L650.086 43.55H629.788V60ZM612.508 141.6L628.402 145.839L628.512 145.426L628.601 145.008L612.508 141.6ZM632.908 153.36L620.11 143.024L619.988 143.176L619.869 143.33L632.908 153.36ZM640.828 137.04V120.59H628.419L625.01 132.521L640.828 137.04ZM650.908 137.04L666.47 142.371L673.932 120.59H650.908V137.04ZM628.828 172.32L638.294 185.773L638.319 185.756L638.343 185.739L628.828 172.32ZM586.348 175.92L574.955 187.787L575.197 188.019L575.448 188.241L586.348 175.92ZM579.148 159.36L595.497 157.543L590.716 114.518L565.717 149.861L579.148 159.36ZM563.548 175.44L573.109 188.826L573.144 188.801L573.179 188.776L563.548 175.44ZM570.747 152.64L582.129 164.517L582.135 164.512L582.14 164.507L570.747 152.64ZM578.908 137.04L594.975 140.567L594.987 140.512L594.999 140.458L578.908 137.04ZM590.428 82.8L606.519 86.2176L606.878 84.5276V82.8H590.428ZM588.028 76.8L574.989 86.8297L575.185 87.0843L575.39 87.331L588.028 76.8ZM563.308 84.96L576.811 94.354L576.859 94.2862L576.905 94.2179L563.308 84.96ZM551.308 111.84L567.161 116.23L567.169 116.199L567.178 116.168L551.308 111.84ZM550.348 154.8L538.716 166.432L538.916 166.632L539.123 166.826L550.348 154.8ZM543.388 164.99C538.472 164.99 535.195 163.5 532.37 160.6L508.806 183.56C518.14 193.14 530.063 197.89 543.388 197.89V164.99ZM532.37 160.6C530.529 158.711 527.918 153.99 527.918 142.8H495.018C495.018 158.17 498.486 172.969 508.806 183.56L532.37 160.6ZM527.918 142.8C527.918 133.13 529.81 122.609 533.915 111.145L502.94 100.055C497.765 114.511 495.018 128.79 495.018 142.8H527.918ZM533.876 111.252C537.893 100.273 543.631 91.404 550.974 84.3141L528.121 60.6458C516.904 71.476 508.562 84.6871 502.979 99.9481L533.876 111.252ZM550.977 84.3107C557.394 78.1114 564.513 75.25 573.148 75.25V42.35C555.862 42.35 540.581 48.6086 528.118 60.6493L550.977 84.3107ZM573.148 75.25C575.547 75.25 577.12 75.4602 578.048 75.6732C578.98 75.8871 578.903 76.0206 578.354 75.6364L597.221 48.6836C589.945 43.5904 581.018 42.35 573.148 42.35V75.25ZM578.354 75.6364C578.195 75.5251 577.515 74.9892 576.916 73.8822C576.299 72.7393 576.138 71.6694 576.138 71.04H609.038C609.038 61.6142 604.5 53.7786 597.221 48.6836L578.354 75.6364ZM576.138 71.04V72.72H609.038V71.04H576.138ZM608.694 76.0629L611.334 63.3429L579.121 56.6571L576.481 69.3771L608.694 76.0629ZM595.228 76.45H629.788V43.55H595.228V76.45ZM613.694 56.592L596.414 138.192L628.601 145.008L645.881 63.408L613.694 56.592ZM596.613 137.361C595.571 141.268 595.098 145.264 595.098 149.28H627.998C627.998 147.856 628.164 146.732 628.402 145.839L596.613 137.361ZM595.098 149.28C595.098 155.065 596.463 162.458 602.102 168.372C607.88 174.432 615.367 176.05 621.388 176.05V143.15C620.848 143.15 623.415 143.048 625.913 145.668C628.272 148.142 627.998 150.375 627.998 149.28H595.098ZM621.388 176.05C631.887 176.05 640.234 170.815 645.946 163.39L619.869 143.33C619.395 143.946 619.32 143.831 619.793 143.576C620.024 143.45 620.314 143.332 620.638 143.251C620.96 143.171 621.223 143.15 621.388 143.15V176.05ZM645.705 163.696C650.806 157.38 654.296 149.78 656.645 141.559L625.01 132.521C623.519 137.74 621.729 141.02 620.11 143.024L645.705 163.696ZM640.828 153.49H650.908V120.59H640.828V153.49ZM635.345 131.709C629.846 147.761 623.943 155.617 619.312 158.901L638.343 185.739C651.312 176.543 660.129 160.879 666.47 142.371L635.345 131.709ZM619.361 158.867C612.925 163.396 607.445 164.99 602.668 164.99V197.89C615.49 197.89 627.45 193.404 638.294 185.773L619.361 158.867ZM602.668 164.99C599.079 164.99 597.798 164.086 597.247 163.599L575.448 188.241C583.217 195.114 592.816 197.89 602.668 197.89V164.99ZM597.74 164.053C597.273 163.605 596.004 162.105 595.497 157.543L562.798 161.177C563.891 171.015 567.422 180.555 574.955 187.787L597.74 164.053ZM565.717 149.861C561.989 155.133 558.029 159.134 553.916 162.104L573.179 188.776C580.586 183.426 587.026 176.707 592.578 168.859L565.717 149.861ZM553.986 162.054C551.554 163.791 548.295 164.99 543.388 164.99V197.89C554.16 197.89 564.341 195.089 573.109 188.826L553.986 162.054ZM558.988 174.61C568.476 174.61 576.264 170.137 582.129 164.517L559.366 140.763C558.453 141.638 557.959 141.879 557.938 141.889C557.936 141.889 558.044 141.84 558.25 141.792C558.46 141.743 558.714 141.71 558.988 141.71V174.61ZM582.14 164.507C588.946 157.973 592.986 149.628 594.975 140.567L562.84 133.513C561.949 137.572 560.549 139.627 559.355 140.773L582.14 164.507ZM594.999 140.458L606.519 86.2176L574.336 79.3824L562.816 133.622L594.999 140.458ZM606.878 82.8C606.878 76.1343 604.211 70.5244 600.665 66.269L575.39 87.331C575.258 87.1725 574.889 86.6858 574.554 85.8494C574.205 84.9768 573.978 83.9273 573.978 82.8H606.878ZM601.066 66.7702C595.507 59.543 587.487 57.23 580.588 57.23V90.13C580.586 90.13 580.396 90.1303 580.058 90.0702C579.716 90.0092 579.211 89.884 578.606 89.6301C577.28 89.0741 575.975 88.1118 574.989 86.8297L601.066 66.7702ZM580.588 57.23C566.667 57.23 556.502 65.7263 549.71 75.7021L576.905 94.2179C578.617 91.7039 579.882 90.6521 580.459 90.2749C580.875 90.004 580.822 90.13 580.588 90.13V57.23ZM549.804 75.566C543.404 84.7648 538.706 95.5269 535.437 107.512L567.178 116.168C569.669 107.033 572.971 99.8751 576.811 94.354L549.804 75.566ZM535.454 107.45C532.306 118.817 530.538 129.543 530.538 139.44H563.438C563.438 133.337 564.549 125.663 567.161 116.23L535.454 107.45ZM530.538 139.44C530.538 144.074 530.85 148.646 531.758 152.795C532.595 156.623 534.349 162.066 538.716 166.432L561.979 143.168C563.133 144.321 563.662 145.354 563.842 145.748C564.025 146.15 563.997 146.219 563.898 145.765C563.685 144.794 563.438 142.806 563.438 139.44H530.538ZM539.123 166.826C544.648 171.982 551.569 174.61 558.988 174.61V141.71C559.168 141.71 559.649 141.747 560.27 141.989C560.897 142.232 561.34 142.558 561.572 142.774L539.123 166.826ZM718.196 174.48L706.945 186.481L707.046 186.576L707.149 186.669L718.196 174.48ZM711.956 141.6L728.04 145.047L728.056 144.976L728.07 144.906L711.956 141.6ZM713.876 132.24L697.863 128.472L697.809 128.703L697.761 128.934L713.876 132.24ZM698.036 114L690.679 99.2867L690.508 99.3722L690.339 99.4617L698.036 114ZM688.436 120.72L677.959 108.038L673.524 111.702L672.339 117.331L688.436 120.72ZM675.956 180V196.45H689.303L692.053 183.389L675.956 180ZM641.396 180L625.307 176.569L621.068 196.45H641.396V180ZM676.196 16.8L673.993 0.498173L662.521 2.04835L660.107 13.3694L676.196 16.8ZM711.716 12L727.805 15.428L732.675 -7.43192L709.513 -4.30184L711.716 12ZM693.716 96.48L677.627 93.052L668.144 137.559L703.894 109.403L693.716 96.48ZM740.036 60V43.55H734.336L729.858 47.0767L740.036 60ZM763.796 60L773.184 73.508L816.289 43.55H763.796V60ZM715.796 93.36L706.408 79.852L720.034 109.255L715.796 93.36ZM749.156 129.6L733.143 125.832L733.116 125.949L733.09 126.066L749.156 129.6ZM746.516 141.6L762.365 146.003L762.485 145.572L762.581 145.134L746.516 141.6ZM766.196 153.12L778.685 163.826L778.808 163.683L778.927 163.537L766.196 153.12ZM774.836 137.04V120.59H763.698L759.562 130.931L774.836 137.04ZM784.916 137.04L800.513 142.267L807.778 120.59H784.916V137.04ZM740.756 164.99C733.156 164.99 730.245 163.199 729.242 162.291L707.149 186.669C716.387 195.041 728.515 197.89 740.756 197.89V164.99ZM729.446 162.479C728.446 161.541 726.966 159.564 726.966 154.08H694.066C694.066 166.196 697.706 177.819 706.945 186.481L729.446 162.479ZM726.966 154.08C726.966 151.595 727.278 148.604 728.04 145.047L695.871 138.153C694.713 143.556 694.066 148.885 694.066 154.08H726.966ZM728.07 144.906L729.99 135.546L697.761 128.934L695.841 138.294L728.07 144.906ZM729.888 136.008C730.857 131.89 731.286 127.649 731.286 123.36H698.386C698.386 125.471 698.174 127.15 697.863 128.472L729.888 136.008ZM731.286 123.36C731.286 117.938 730.353 110.873 725.836 104.85C720.651 97.9375 713.089 95.39 706.196 95.39V128.29C705.825 128.29 704.725 128.228 703.295 127.592C701.769 126.914 700.453 125.839 699.516 124.59C697.879 122.407 698.386 121.102 698.386 123.36H731.286ZM706.196 95.39C700.509 95.39 695.269 96.9916 690.679 99.2867L705.392 128.713C706.562 128.128 706.762 128.29 706.196 128.29V95.39ZM690.339 99.4617C686.248 101.627 682.085 104.629 677.959 108.038L698.912 133.402C702.146 130.731 704.383 129.253 705.732 128.538L690.339 99.4617ZM672.339 117.331L659.858 176.611L692.053 183.389L704.533 124.109L672.339 117.331ZM675.956 163.55H641.396V196.45H675.956V163.55ZM657.484 183.431L692.284 20.2306L660.107 13.3694L625.307 176.569L657.484 183.431ZM678.399 33.1018L713.919 28.3018L709.513 -4.30184L673.993 0.498173L678.399 33.1018ZM695.627 8.57197L677.627 93.052L709.805 99.908L727.805 15.428L695.627 8.57197ZM703.894 109.403L750.214 72.9233L729.858 47.0767L683.538 83.5567L703.894 109.403ZM740.036 76.45H763.796V43.55H740.036V76.45ZM754.408 46.492L706.408 79.852L725.184 106.868L773.184 73.508L754.408 46.492ZM720.034 109.255C720.852 109.036 722.045 108.85 723.716 108.85V75.95C719.627 75.95 715.539 76.4036 711.557 77.4654L720.034 109.255ZM723.716 108.85C728.824 108.85 730.251 110.254 730.852 110.963L755.939 89.6772C747.58 79.8261 735.887 75.95 723.716 75.95V108.85ZM730.852 110.963C732.374 112.757 733.666 115.488 733.666 120.48H766.566C766.566 109.152 763.377 98.4433 755.939 89.6772L730.852 110.963ZM733.666 120.48C733.666 122.818 733.441 124.566 733.143 125.832L765.168 133.368C766.15 129.194 766.566 124.862 766.566 120.48H733.666ZM733.09 126.066L730.45 138.066L762.581 145.134L765.221 133.134L733.09 126.066ZM730.666 137.197C729.591 141.065 728.866 145.151 728.866 149.28H761.766C761.766 148.929 761.84 147.895 762.365 146.003L730.666 137.197ZM728.866 149.28C728.866 155.003 730.416 162.26 736.334 167.874C742.089 173.334 749.23 174.61 754.676 174.61V141.71C753.882 141.71 756.342 141.506 758.978 144.006C761.775 146.66 761.766 149.477 761.766 149.28H728.866ZM754.676 174.61C763.818 174.61 772.393 171.167 778.685 163.826L753.706 142.414C753.725 142.392 753.815 142.293 753.986 142.165C754.158 142.035 754.358 141.919 754.562 141.829C755.002 141.637 755.134 141.71 754.676 141.71V174.61ZM778.927 163.537C783.359 158.121 786.979 150.973 790.109 143.149L759.562 130.931C756.932 137.507 754.793 141.079 753.464 142.703L778.927 163.537ZM774.836 153.49H784.916V120.59H774.836V153.49ZM769.318 131.813C760.079 159.382 749.289 164.99 740.756 164.99V197.89C771.262 197.89 789.912 173.898 800.513 142.267L769.318 131.813ZM790.814 172.32L779.477 184.239L779.554 184.312L779.632 184.385L790.814 172.32ZM787.454 106.8L803.097 111.889L787.454 106.8ZM808.574 72.48L820.11 84.2076L820.158 84.16L820.206 84.1119L808.574 72.48ZM864.494 105.6L878.092 114.858L864.494 105.6ZM844.094 123.84L851.779 138.385L851.885 138.329L851.991 138.271L844.094 123.84ZM816.974 131.52L815.88 115.106L801.864 116.041L800.592 130.031L816.974 131.52ZM859.694 145.92L875.877 148.872L884.411 102.092L848.795 133.599L859.694 145.92ZM818.654 120L802.573 116.539L798.171 136.995L819.087 136.444L818.654 120ZM835.694 114L826.208 100.561L826.113 100.628L826.019 100.696L835.694 114ZM848.654 99.36L834.257 91.4034L834.22 91.4704L834.183 91.5377L848.654 99.36ZM830.894 85.92L816.462 78.0271L816.44 78.0672L816.418 78.1074L830.894 85.92ZM818.174 164.99C809.336 164.99 804.677 162.739 801.996 160.255L779.632 184.385C790.072 194.061 803.652 197.89 818.174 197.89V164.99ZM802.152 160.401C800.088 158.438 797.424 153.937 797.424 143.28H764.524C764.524 158.863 768.42 173.722 779.477 184.239L802.152 160.401ZM797.424 143.28C797.424 134.356 799.177 123.94 803.097 111.889L771.811 101.711C767.091 116.22 764.524 130.124 764.524 143.28H797.424ZM803.097 111.889C806.618 101.067 812.271 91.9181 820.11 84.2076L797.039 60.7524C785.358 72.2419 776.931 85.9731 771.811 101.711L803.097 111.889ZM820.206 84.1119C826.589 77.7287 834.666 74.29 845.774 74.29V41.39C826.802 41.39 810.079 47.7113 796.942 60.8481L820.206 84.1119ZM845.774 74.29C852.547 74.29 854.554 75.8159 854.758 75.9938C854.816 76.0449 854.962 76.159 855.157 76.6694C855.39 77.2781 855.724 78.5717 855.724 80.88H888.624C888.624 70.0377 885.415 59.0817 876.391 51.2062C867.795 43.704 856.602 41.39 845.774 41.39V74.29ZM855.724 80.88C855.724 86.484 854.189 91.5071 850.897 96.3421L878.092 114.858C885.04 104.653 888.624 93.196 888.624 80.88H855.724ZM850.897 96.3421C847.333 101.577 842.542 105.938 836.198 109.409L851.991 138.271C862.607 132.462 871.416 124.663 878.092 114.858L850.897 96.3421ZM836.41 109.295C829.978 112.693 823.184 114.619 815.88 115.106L818.069 147.934C829.964 147.141 841.251 143.947 851.779 138.385L836.41 109.295ZM800.592 130.031C800.279 133.473 800.044 136.586 800.044 138.72H832.944C832.944 138.727 832.944 138.693 832.946 138.609C832.949 138.527 832.952 138.414 832.959 138.265C832.972 137.963 832.994 137.564 833.028 137.054C833.096 136.031 833.204 134.693 833.357 133.009L800.592 130.031ZM800.044 138.72C800.044 146.931 801.494 156.086 807.035 163.505C813.25 171.824 822.376 175.09 831.374 175.09V142.19C830.713 142.19 830.911 142.08 831.568 142.373C832.319 142.708 832.983 143.266 833.393 143.815C833.734 144.272 833.601 144.319 833.387 143.46C833.169 142.586 832.944 141.07 832.944 138.72H800.044ZM831.374 175.09C838.814 175.09 846.007 173.099 852.756 169.935L838.792 140.145C835.302 141.781 832.895 142.19 831.374 142.19V175.09ZM852.756 169.935C859.272 166.88 865.236 162.98 870.594 158.241L848.795 133.599C845.833 136.22 842.516 138.4 838.792 140.145L852.756 169.935ZM843.511 142.968C841.81 152.292 838.619 157.29 835.381 160.06C832.202 162.779 827.067 164.99 818.174 164.99V197.89C832.642 197.89 846.107 194.181 856.768 185.06C867.37 175.99 873.258 163.228 875.877 148.872L843.511 142.968ZM819.087 136.444C828.743 136.19 837.606 132.95 845.37 127.304L826.019 100.696C823.223 102.73 820.726 103.49 818.222 103.556L819.087 136.444ZM845.181 127.439C852.716 122.12 858.733 115.309 863.126 107.182L834.183 91.5377C832.176 95.2508 829.553 98.1998 826.208 100.561L845.181 127.439ZM863.052 107.317C867.676 98.9492 870.144 89.908 870.144 80.4H837.244C837.244 84.012 836.353 87.6108 834.257 91.4034L863.052 107.317ZM870.144 80.4C870.144 75.9837 869.567 69.9136 866.239 64.456C862.106 57.6773 855.143 54.11 847.694 54.11V87.01C846.407 87.01 844.48 86.7305 842.429 85.609C840.347 84.4709 838.961 82.9156 838.149 81.584C837.404 80.3615 837.219 79.4685 837.199 79.3715C837.175 79.2534 837.244 79.5461 837.244 80.4H870.144ZM847.694 54.11C839.515 54.11 832.936 57.9246 828.194 62.2594C823.54 66.5149 819.715 72.0779 816.462 78.0271L845.327 93.8129C847.674 89.5221 849.449 87.4051 850.394 86.5406C851.253 85.7554 850.274 87.01 847.694 87.01V54.11ZM816.418 78.1074C810.152 89.7178 805.578 102.572 802.573 116.539L834.736 123.461C837.171 112.148 840.757 102.282 845.371 93.7326L816.418 78.1074ZM890.705 107.76V91.31H877.582L874.666 104.106L890.705 107.76ZM938.705 107.76L954.787 111.221L959.071 91.31H938.705V107.76ZM934.625 126.72V143.17H947.912L950.707 130.181L934.625 126.72ZM886.385 126.72L870.346 123.066L865.765 143.17H886.385V126.72ZM890.705 124.21H938.705V91.31H890.705V124.21ZM922.623 104.299L918.543 123.259L950.707 130.181L954.787 111.221L922.623 104.299ZM934.625 110.27H886.385V143.17H934.625V110.27ZM902.424 130.374L906.744 111.414L874.666 104.106L870.346 123.066L902.424 130.374ZM1037.11 180L1045.22 165.688L1045.14 165.642L1045.06 165.597L1037.11 180ZM1033.27 152.4L1045.5 141.396L1027.92 121.865L1018.03 146.209L1033.27 152.4ZM1041.19 159.12L1033.45 173.635L1033.64 173.737L1033.84 173.833L1041.19 159.12ZM1067.11 147.6L1052.09 140.894L1052.04 141.007L1051.99 141.12L1067.11 147.6ZM1039.27 88.08L1036.71 71.8313L1025.55 73.5927L1023.19 84.6361L1039.27 88.08ZM1019.59 180V196.45H1032.9L1035.68 183.444L1019.59 180ZM985.034 180L968.948 176.56L964.695 196.45H985.034V180ZM1017.67 27.36L1015.47 11.0582L1004.01 12.6074L1001.59 23.9201L1017.67 27.36ZM1053.19 22.56L1069.29 25.9671L1074.12 3.13241L1050.99 6.25817L1053.19 22.56ZM1041.91 75.84L1025.82 72.4329L1021.62 92.29H1041.91V75.84ZM1060.39 70.08L1070.07 83.3837L1070.2 83.2892L1070.33 83.1922L1060.39 70.08ZM1073.11 55.2L1087.59 63.0222L1087.63 62.9421L1087.67 62.8615L1073.11 55.2ZM1069.99 18.48L1058.55 30.295L1058.64 30.383L1058.73 30.4695L1069.99 18.48ZM1017.67 17.76L1024.62 32.6733L1024.72 32.6244L1024.83 32.5741L1017.67 17.76ZM994.874 37.44L981.225 28.258L981.167 28.3441L981.111 28.431L994.874 37.44ZM987.914 81.84L973.008 88.7965L973.102 88.9979L973.201 89.1967L987.914 81.84ZM989.594 85.68V102.13H1006.04V85.68H989.594ZM970.394 80.64L960.003 93.3926L960.148 93.5104L960.295 93.6248L970.394 80.64ZM976.154 32.64L963.534 22.0886L976.154 32.64ZM1008.55 9.12L1015.19 24.1743L1015.26 24.1414L1015.33 24.1077L1008.55 9.12ZM1079.35 5.27999L1086.21 -9.67413L1079.35 5.27999ZM1096.39 19.2L1082.53 28.0565L1082.62 28.1915L1082.71 28.3248L1096.39 19.2ZM1095.91 59.52L1109.99 68.0315L1095.91 59.52ZM1078.15 76.32L1070.09 61.9826L1030.43 84.2938L1075.19 92.5003L1078.15 76.32ZM1099.51 89.76L1085.69 98.671L1085.73 98.7421L1085.78 98.8127L1099.51 89.76ZM1101.19 144.72L1085.57 139.588L1085.53 139.694L1085.5 139.8L1101.19 144.72ZM1084.15 172.56L1095.67 184.311L1095.67 184.309L1084.15 172.56ZM1053.91 167.63C1049.9 167.63 1047.18 166.796 1045.22 165.688L1029 194.312C1036.65 198.644 1045.13 200.53 1053.91 200.53V167.63ZM1045.06 165.597C1045.22 165.683 1045.51 165.875 1045.83 166.206C1046.16 166.541 1046.4 166.897 1046.56 167.201C1046.86 167.79 1046.6 167.717 1046.6 166.32H1013.7C1013.7 177.191 1017.96 188.219 1029.17 194.403L1045.06 165.597ZM1046.6 166.32C1046.6 164.855 1046.99 162.356 1048.51 158.591L1018.03 146.209C1015.4 152.684 1013.7 159.465 1013.7 166.32H1046.6ZM1021.05 163.404C1024.55 167.296 1028.67 171.086 1033.45 173.635L1048.94 144.605C1049.01 144.643 1048.71 144.493 1048.06 143.937C1047.41 143.392 1046.56 142.573 1045.5 141.396L1021.05 163.404ZM1033.84 173.833C1038.7 176.263 1043.94 177.49 1049.35 177.49V144.59C1049.01 144.59 1048.81 144.537 1048.55 144.407L1033.84 173.833ZM1049.35 177.49C1056.64 177.49 1063.68 175.372 1069.72 170.797C1075.56 166.376 1079.53 160.388 1082.23 154.08L1051.99 141.12C1050.86 143.772 1049.94 144.504 1049.87 144.563C1049.84 144.584 1049.88 144.556 1049.92 144.541C1049.96 144.53 1049.8 144.59 1049.35 144.59V177.49ZM1082.14 154.306C1087.18 143.016 1089.56 130.778 1089.56 117.84H1056.66C1056.66 126.662 1055.05 134.264 1052.09 140.894L1082.14 154.306ZM1089.56 117.84C1089.56 106.105 1087.45 94.3066 1080.59 85.1266C1073.05 75.0493 1061.94 70.91 1050.31 70.91V103.81C1052.3 103.81 1053.26 104.141 1053.59 104.291C1053.83 104.398 1053.99 104.503 1054.24 104.833C1054.97 105.813 1056.66 109.255 1056.66 117.84H1089.56ZM1050.31 70.91C1045.45 70.91 1040.86 71.1759 1036.71 71.8313L1041.84 104.329C1043.77 104.024 1046.54 103.81 1050.31 103.81V70.91ZM1023.19 84.6361L1003.51 176.556L1035.68 183.444L1055.36 91.5239L1023.19 84.6361ZM1019.59 163.55H985.034V196.45H1019.59V163.55ZM1001.12 183.44L1033.76 30.7998L1001.59 23.9201L968.948 176.56L1001.12 183.44ZM1019.88 43.6618L1055.4 38.8618L1050.99 6.25817L1015.47 11.0582L1019.88 43.6618ZM1037.1 19.1529L1025.82 72.4329L1058.01 79.2471L1069.29 25.9671L1037.1 19.1529ZM1041.91 92.29H1043.35V59.39H1041.91V92.29ZM1043.35 92.29C1053.17 92.29 1062.2 89.1088 1070.07 83.3837L1050.72 56.7763C1048.03 58.7312 1045.7 59.39 1043.35 59.39V92.29ZM1070.33 83.1922C1077.51 77.7501 1083.29 70.9755 1087.59 63.0222L1058.64 47.3777C1056.54 51.2645 1053.84 54.4099 1050.46 56.9678L1070.33 83.1922ZM1087.67 62.8615C1091.95 54.7299 1094.36 46.04 1094.36 36.96H1061.46C1061.46 40.04 1060.68 43.5101 1058.56 47.5385L1087.67 62.8615ZM1094.36 36.96C1094.36 25.1411 1089.91 14.6155 1081.26 6.49045L1058.73 30.4695C1060.64 32.2645 1061.46 34.0589 1061.46 36.96H1094.36ZM1081.44 6.66494C1072.01 -2.47065 1059.11 -5.41002 1046.23 -5.41002V27.49C1054.8 27.49 1057.74 29.5106 1058.55 30.295L1081.44 6.66494ZM1046.23 -5.41002C1033.86 -5.41002 1021.91 -2.54922 1010.52 2.94591L1024.83 32.5741C1032 29.1092 1039.09 27.49 1046.23 27.49V-5.41002ZM1010.73 2.84671C998.635 8.47791 988.754 17.0667 981.225 28.258L1008.52 46.622C1012.83 40.2133 1018.15 35.6821 1024.62 32.6733L1010.73 2.84671ZM981.111 28.431C973.293 40.3751 969.784 54.2866 969.784 69.36H1002.68C1002.68 59.4733 1004.94 52.1049 1008.64 46.449L981.111 28.431ZM969.784 69.36C969.784 75.4261 970.222 82.8274 973.008 88.7965L1002.82 74.8835C1003.07 75.4215 1003.14 75.7186 1003.12 75.6289C1003.1 75.5562 1003.03 75.2736 1002.96 74.7254C1002.81 73.6002 1002.68 71.8581 1002.68 69.36H969.784ZM973.201 89.1967C973.717 90.2283 973.991 90.8163 974.104 91.0735C974.169 91.2223 974.089 91.0549 973.963 90.6943C973.901 90.5171 973.756 90.0904 973.609 89.5047C973.534 89.2031 973.431 88.7521 973.342 88.1933C973.259 87.6707 973.144 86.7873 973.144 85.68H1006.04C1006.04 83.6272 1005.65 82.0356 1005.53 81.5253C1005.35 80.7996 1005.15 80.2029 1005.02 79.8257C1004.75 79.0651 1004.46 78.3777 1004.25 77.8865C1003.8 76.8637 1003.23 75.6917 1002.63 74.4833L973.201 89.1967ZM989.594 69.23C982.878 69.23 980.722 67.8324 980.494 67.6552L960.295 93.6248C968.707 100.168 979.35 102.13 989.594 102.13V69.23ZM980.785 67.8874C981.064 68.1145 981.059 68.2849 980.91 67.8929C980.713 67.3748 980.364 66.0737 980.364 63.6H947.464C947.464 74.2773 950.469 85.6242 960.003 93.3926L980.785 67.8874ZM980.364 63.6C980.364 57.2122 982.649 50.5186 988.775 43.1914L963.534 22.0886C953.34 34.2814 947.464 48.2278 947.464 63.6H980.364ZM988.775 43.1914C995.078 35.6524 1003.7 29.2317 1015.19 24.1743L1001.92 -5.93429C986.525 0.848305 973.551 10.1076 963.534 22.0886L988.775 43.1914ZM1015.33 24.1077C1026.62 19.0001 1038.47 16.45 1051.03 16.45V-16.45C1033.84 -16.45 1017.36 -12.9202 1001.77 -5.86773L1015.33 24.1077ZM1051.03 16.45C1060.6 16.45 1067.55 17.9655 1072.5 20.2341L1086.21 -9.67413C1075.8 -14.4456 1063.87 -16.45 1051.03 -16.45V16.45ZM1072.5 20.2341C1077.99 22.7485 1080.92 25.5268 1082.53 28.0565L1110.26 10.3435C1104.51 1.35315 1096.08 -5.14853 1086.21 -9.67413L1072.5 20.2341ZM1082.71 28.3248C1084.76 31.4005 1085.7 34.549 1085.7 38.16H1118.6C1118.6 28.0109 1115.71 18.5195 1110.08 10.0752L1082.71 28.3248ZM1085.7 38.16C1085.7 42.2454 1084.59 46.451 1081.84 51.0085L1109.99 68.0315C1115.56 58.829 1118.6 48.7946 1118.6 38.16H1085.7ZM1081.84 51.0084C1079.28 55.232 1075.54 58.9165 1070.09 61.9826L1086.22 90.6574C1096.13 85.0835 1104.22 77.568 1109.99 68.0315L1081.84 51.0084ZM1075.19 92.5003C1081 93.5665 1083.86 95.8381 1085.69 98.671L1113.34 80.849C1105.89 69.2819 1094.51 62.5935 1081.12 60.1397L1075.19 92.5003ZM1085.78 98.8127C1088.38 102.762 1090.02 107.898 1090.02 114.96H1122.92C1122.92 102.502 1119.93 90.8377 1113.25 80.7074L1085.78 98.8127ZM1090.02 114.96C1090.02 121.98 1088.67 130.148 1085.57 139.588L1116.82 149.852C1120.76 137.852 1122.92 126.18 1122.92 114.96H1090.02ZM1085.5 139.8C1082.95 147.942 1078.7 154.874 1072.64 160.811L1095.67 184.309C1105.61 174.566 1112.72 162.938 1116.89 149.64L1085.5 139.8ZM1072.64 160.809C1068.26 165.098 1062.5 167.63 1053.91 167.63V200.53C1069.96 200.53 1084.36 195.382 1095.67 184.311L1072.64 160.809ZM1130.38 172.08L1118.6 183.56L1130.38 172.08ZM1128.22 105.6L1112.78 99.9481L1112.76 100.002L1112.74 100.055L1128.22 105.6ZM1149.34 72.48L1160.77 84.3141L1160.77 84.3107L1149.34 72.48ZM1197.58 62.16L1207.02 48.6836L1197.58 62.16ZM1202.38 72.72H1185.93L1218.49 76.0629L1202.38 72.72ZM1205.02 60V43.55H1191.64L1188.92 56.6571L1205.02 60ZM1239.58 60L1255.68 63.408L1259.88 43.55H1239.58V60ZM1222.3 141.6L1238.2 145.839L1238.31 145.426L1238.4 145.008L1222.3 141.6ZM1242.7 153.36L1229.91 143.024L1229.78 143.176L1229.67 143.33L1242.7 153.36ZM1250.62 137.04V120.59H1238.22L1234.81 132.521L1250.62 137.04ZM1260.7 137.04L1276.27 142.371L1283.73 120.59H1260.7V137.04ZM1238.62 172.32L1248.09 185.773L1248.12 185.756L1248.14 185.739L1238.62 172.32ZM1196.14 175.92L1184.75 187.787L1184.99 188.019L1185.25 188.241L1196.14 175.92ZM1188.94 159.36L1205.29 157.543L1200.51 114.518L1175.51 149.861L1188.94 159.36ZM1173.34 175.44L1182.91 188.826L1182.94 188.801L1182.98 188.776L1173.34 175.44ZM1180.54 152.64L1191.93 164.517L1191.93 164.512L1191.94 164.507L1180.54 152.64ZM1188.7 137.04L1204.77 140.567L1204.78 140.512L1204.8 140.458L1188.7 137.04ZM1200.22 82.8L1216.32 86.2176L1216.67 84.5276V82.8H1200.22ZM1197.82 76.8L1184.79 86.8297L1184.98 87.0843L1185.19 87.331L1197.82 76.8ZM1173.1 84.96L1186.61 94.354L1186.66 94.2862L1186.7 94.2179L1173.1 84.96ZM1161.1 111.84L1176.96 116.23L1176.97 116.199L1176.97 116.168L1161.1 111.84ZM1160.14 154.8L1148.51 166.432L1148.71 166.632L1148.92 166.826L1160.14 154.8ZM1153.18 164.99C1148.27 164.99 1144.99 163.5 1142.17 160.6L1118.6 183.56C1127.94 193.14 1139.86 197.89 1153.18 197.89V164.99ZM1142.17 160.6C1140.33 158.711 1137.71 153.99 1137.71 142.8H1104.81C1104.81 158.17 1108.28 172.969 1118.6 183.56L1142.17 160.6ZM1137.71 142.8C1137.71 133.13 1139.61 122.609 1143.71 111.145L1112.74 100.055C1107.56 114.511 1104.81 128.79 1104.81 142.8H1137.71ZM1143.67 111.252C1147.69 100.273 1153.43 91.404 1160.77 84.3141L1137.92 60.6458C1126.7 71.476 1118.36 84.6871 1112.78 99.9481L1143.67 111.252ZM1160.77 84.3107C1167.19 78.1114 1174.31 75.25 1182.94 75.25V42.35C1165.66 42.35 1150.38 48.6086 1137.91 60.6493L1160.77 84.3107ZM1182.94 75.25C1185.34 75.25 1186.92 75.4602 1187.84 75.6732C1188.78 75.8871 1188.7 76.0206 1188.15 75.6364L1207.02 48.6836C1199.74 43.5904 1190.82 42.35 1182.94 42.35V75.25ZM1188.15 75.6364C1187.99 75.5251 1187.31 74.9892 1186.71 73.8822C1186.1 72.7393 1185.93 71.6694 1185.93 71.04H1218.83C1218.83 61.6142 1214.3 53.7786 1207.02 48.6836L1188.15 75.6364ZM1185.93 71.04V72.72H1218.83V71.04H1185.93ZM1218.49 76.0629L1221.13 63.3429L1188.92 56.6571L1186.28 69.3771L1218.49 76.0629ZM1205.02 76.45H1239.58V43.55H1205.02V76.45ZM1223.49 56.592L1206.21 138.192L1238.4 145.008L1255.68 63.408L1223.49 56.592ZM1206.41 137.361C1205.37 141.268 1204.89 145.264 1204.89 149.28H1237.79C1237.79 147.856 1237.96 146.732 1238.2 145.839L1206.41 137.361ZM1204.89 149.28C1204.89 155.065 1206.26 162.458 1211.9 168.372C1217.68 174.432 1225.16 176.05 1231.18 176.05V143.15C1230.65 143.15 1233.21 143.048 1235.71 145.668C1238.07 148.142 1237.79 150.375 1237.79 149.28H1204.89ZM1231.18 176.05C1241.68 176.05 1250.03 170.815 1255.74 163.39L1229.67 143.33C1229.19 143.946 1229.12 143.831 1229.59 143.576C1229.82 143.45 1230.11 143.332 1230.43 143.251C1230.76 143.171 1231.02 143.15 1231.18 143.15V176.05ZM1255.5 163.696C1260.6 157.38 1264.09 149.78 1266.44 141.559L1234.81 132.521C1233.32 137.74 1231.53 141.02 1229.91 143.024L1255.5 163.696ZM1250.62 153.49H1260.7V120.59H1250.62V153.49ZM1245.14 131.709C1239.64 147.761 1233.74 155.617 1229.11 158.901L1248.14 185.739C1261.11 176.543 1269.93 160.879 1276.27 142.371L1245.14 131.709ZM1229.16 158.867C1222.72 163.396 1217.24 164.99 1212.46 164.99V197.89C1225.29 197.89 1237.25 193.404 1248.09 185.773L1229.16 158.867ZM1212.46 164.99C1208.88 164.99 1207.59 164.086 1207.04 163.599L1185.25 188.241C1193.01 195.114 1202.61 197.89 1212.46 197.89V164.99ZM1207.54 164.053C1207.07 163.605 1205.8 162.105 1205.29 157.543L1172.59 161.177C1173.69 171.015 1177.22 180.555 1184.75 187.787L1207.54 164.053ZM1175.51 149.861C1171.79 155.133 1167.83 159.134 1163.71 162.104L1182.98 188.776C1190.38 183.426 1196.82 176.707 1202.37 168.859L1175.51 149.861ZM1163.78 162.054C1161.35 163.791 1158.09 164.99 1153.18 164.99V197.89C1163.96 197.89 1174.14 195.089 1182.91 188.826L1163.78 162.054ZM1168.78 174.61C1178.27 174.61 1186.06 170.137 1191.93 164.517L1169.16 140.763C1168.25 141.638 1167.76 141.879 1167.73 141.889C1167.73 141.889 1167.84 141.84 1168.05 141.792C1168.26 141.743 1168.51 141.71 1168.78 141.71V174.61ZM1191.94 164.507C1198.74 157.973 1202.78 149.628 1204.77 140.567L1172.64 133.513C1171.75 137.572 1170.35 139.627 1169.15 140.773L1191.94 164.507ZM1204.8 140.458L1216.32 86.2176L1184.13 79.3824L1172.61 133.622L1204.8 140.458ZM1216.67 82.8C1216.67 76.1343 1214.01 70.5244 1210.46 66.269L1185.19 87.331C1185.06 87.1725 1184.69 86.6858 1184.35 85.8494C1184 84.9768 1183.77 83.9273 1183.77 82.8H1216.67ZM1210.86 66.7702C1205.3 59.543 1197.28 57.23 1190.38 57.23V90.13C1190.38 90.13 1190.19 90.1303 1189.86 90.0702C1189.51 90.0092 1189.01 89.884 1188.4 89.6301C1187.08 89.0741 1185.77 88.1118 1184.79 86.8297L1210.86 66.7702ZM1190.38 57.23C1176.46 57.23 1166.3 65.7263 1159.51 75.7021L1186.7 94.2179C1188.41 91.7039 1189.68 90.6521 1190.26 90.2749C1190.67 90.004 1190.62 90.13 1190.38 90.13V57.23ZM1159.6 75.566C1153.2 84.7648 1148.5 95.5269 1145.23 107.512L1176.97 116.168C1179.47 107.033 1182.77 99.8751 1186.61 94.354L1159.6 75.566ZM1145.25 107.45C1142.1 118.817 1140.33 129.543 1140.33 139.44H1173.23C1173.23 133.337 1174.35 125.663 1176.96 116.23L1145.25 107.45ZM1140.33 139.44C1140.33 144.074 1140.65 148.646 1141.55 152.795C1142.39 156.623 1144.15 162.066 1148.51 166.432L1171.78 143.168C1172.93 144.321 1173.46 145.354 1173.64 145.748C1173.82 146.15 1173.79 146.219 1173.69 145.765C1173.48 144.794 1173.23 142.806 1173.23 139.44H1140.33ZM1148.92 166.826C1154.44 171.982 1161.37 174.61 1168.78 174.61V141.71C1168.97 141.71 1169.45 141.747 1170.07 141.989C1170.69 142.232 1171.14 142.558 1171.37 142.774L1148.92 166.826ZM1276.63 60V43.55H1263.3L1260.54 56.5884L1276.63 60ZM1311.19 60L1327.29 63.3758L1331.45 43.55H1311.19V60ZM1308.07 74.88L1291.97 71.5042L1281.81 119.995L1318.96 87.2148L1308.07 74.88ZM1322.71 63.84L1314.55 49.5574L1314.44 49.6219L1314.33 49.6882L1322.71 63.84ZM1349.11 65.28L1336.38 75.6968L1336.52 75.8663L1336.66 76.0321L1349.11 65.28ZM1349.11 90.24L1336.66 79.4879L1349.11 90.24ZM1329.19 93.12L1315.31 101.952L1315.79 102.702L1316.35 103.396L1329.19 93.12ZM1326.55 85.68L1342.68 82.4539L1342.64 82.2167L1342.58 81.981L1326.55 85.68ZM1325.11 81.12L1339.83 73.7634V73.7633L1325.11 81.12ZM1313.83 81.84L1321.99 96.1226L1322.15 96.0358L1322.3 95.9458L1313.83 81.84ZM1304.95 88.8L1293.86 76.6519L1289.95 80.2252L1288.86 85.4111L1304.95 88.8ZM1285.75 180V196.45H1299.1L1301.85 183.389L1285.75 180ZM1251.19 180L1235.1 176.588L1230.89 196.45H1251.19V180ZM1276.63 76.45H1311.19V43.55H1276.63V76.45ZM1295.09 56.6242L1291.97 71.5042L1324.17 78.2558L1327.29 63.3758L1295.09 56.6242ZM1318.96 87.2148C1323.93 82.8247 1327.96 79.8507 1331.1 77.9918L1314.33 49.6882C1308.82 52.9493 1303.09 57.3353 1297.19 62.5452L1318.96 87.2148ZM1330.87 78.1226C1332.89 76.9713 1334.88 76.45 1337.11 76.45V43.55C1329.11 43.55 1321.5 45.5887 1314.55 49.5574L1330.87 78.1226ZM1337.11 76.45C1337.78 76.45 1337.74 76.5596 1337.33 76.3769C1337.13 76.2903 1336.92 76.1686 1336.73 76.0199C1336.54 75.873 1336.42 75.7483 1336.38 75.6968L1361.84 54.8632C1355.42 47.0138 1346.47 43.55 1337.11 43.55V76.45ZM1336.66 76.0321C1336.94 76.3558 1337.22 76.7035 1337.22 78H1370.12C1370.12 69.3764 1367.36 61.2442 1361.56 54.5279L1336.66 76.0321ZM1337.22 78C1337.22 78.4891 1337.15 78.7123 1337.12 78.7971C1337.09 78.8826 1336.99 79.1064 1336.66 79.4879L1361.56 100.992C1367.18 94.492 1370.12 86.5983 1370.12 78H1337.22ZM1336.66 79.4879C1336.7 79.4415 1336.8 79.3432 1336.95 79.2336C1337.1 79.1236 1337.24 79.0491 1337.35 79.0069C1337.56 78.9186 1337.34 79.07 1336.39 79.07V111.97C1345.72 111.97 1354.86 108.758 1361.56 100.992L1336.66 79.4879ZM1336.39 79.07C1335.76 79.07 1336.16 78.9837 1337.15 79.3141C1338.25 79.681 1340.28 80.6432 1342.04 82.8438L1316.35 103.396C1322.41 110.977 1331.34 111.97 1336.39 111.97V79.07ZM1343.07 84.2884C1343.32 84.6838 1343.32 84.7995 1343.2 84.439C1343.07 84.0925 1342.88 83.4567 1342.68 82.4539L1310.42 88.9061C1311.26 93.1001 1312.67 97.79 1315.31 101.952L1343.07 84.2884ZM1342.58 81.981C1342.04 79.6207 1341.21 76.5349 1339.83 73.7634L1310.4 88.4766C1310.24 88.1604 1310.16 87.9471 1310.13 87.8833C1310.1 87.8128 1310.11 87.8227 1310.15 87.9336C1310.22 88.1687 1310.35 88.6299 1310.52 89.379L1342.58 81.981ZM1339.83 73.7633C1338.2 70.5033 1335.57 67.5628 1331.97 65.5986C1328.53 63.725 1325.12 63.23 1322.47 63.23V96.13C1321.1 96.13 1318.77 95.875 1316.22 94.4814C1313.49 92.9972 1311.55 90.7767 1310.4 88.4767L1339.83 73.7633ZM1322.47 63.23C1316.73 63.23 1310.8 64.4783 1305.37 67.7342L1322.3 95.9458C1322.17 96.0232 1322.05 96.0803 1321.95 96.1202C1321.85 96.1598 1321.79 96.1759 1321.78 96.1788C1321.76 96.1846 1321.96 96.13 1322.47 96.13V63.23ZM1305.67 67.5574C1301.81 69.763 1297.77 73.0817 1293.86 76.6519L1316.04 100.948C1319.49 97.7983 1321.37 96.477 1321.99 96.1226L1305.67 67.5574ZM1288.86 85.4111L1269.66 176.611L1301.85 183.389L1321.05 92.1889L1288.86 85.4111ZM1285.75 163.55H1251.19V196.45H1285.75V163.55ZM1267.28 183.412L1292.72 63.4116L1260.54 56.5884L1235.1 176.588L1267.28 183.412Z" fill="white" fill-opacity="0.2"/>
</g>
<defs>
<filter id="filter0_b_198_9542" x="-109.227" y="-109.667" width="1572.57" height="403.413" filterUnits="userSpaceOnUse" color-interpolation-filters="sRGB">
<feFlood flood-opacity="0" result="BackgroundImageFix"/>
<feGaussianBlur in="BackgroundImageFix" stdDeviation="54.8333"/>
<feComposite in2="SourceAlpha" operator="in" result="effect1_backgroundBlur_198_9542"/>
<feBlend mode="normal" in="SourceGraphic" in2="effect1_backgroundBlur_198_9542" result="shape"/>
</filter>
</defs>
</svg>
